HIERARCHY
ROOT Hips
{
	OFFSET 0.00000 0.00000 0.00000
	CHANNELS 6 Xposition Yposition Zposition Zrotation Yrotation Xrotation 
	JOINT LHipJoint
	{
		OFFSET 0 0 0
		CHANNELS 3 Zrotation Yrotation Xrotation
		JOINT LeftUpLeg
		{
			OFFSET 1.52977 -1.71332 0.88991
			CHANNELS 3 Zrotation Yrotation Xrotation
			JOINT LeftLeg
			{
				OFFSET 2.23949 -6.15296 0.00000
				CHANNELS 3 Zrotation Yrotation Xrotation
				JOINT LeftFoot
				{
					OFFSET 2.68396 -7.37412 0.00000
					CHANNELS 3 Zrotation Yrotation Xrotation
					JOINT LeftToeBase
					{
						OFFSET 0.20538 -0.56428 2.52710
						CHANNELS 3 Zrotation Yrotation Xrotation
						End Site
						{
							OFFSET 0.00000 -0.00000 1.29919
						}
					}
				}
			}
		}
	}
	JOINT RHipJoint
	{
		OFFSET 0 0 0
		CHANNELS 3 Zrotation Yrotation Xrotation
		JOINT RightUpLeg
		{
			OFFSET -1.45689 -1.71333 0.88991
			CHANNELS 3 Zrotation Yrotation Xrotation
			JOINT RightLeg
			{
				OFFSET -2.36700 -6.50329 0.00000
				CHANNELS 3 Zrotation Yrotation Xrotation
				JOINT RightFoot
				{
					OFFSET -2.69814 -7.41308 0.00000
					CHANNELS 3 Zrotation Yrotation Xrotation
					JOINT RightToeBase
					{
						OFFSET -0.18734 -0.51471 2.37479
						CHANNELS 3 Zrotation Yrotation Xrotation
						End Site
						{
							OFFSET -0.00000 -0.00000 1.22113
						}
					}
				}
			}
		}
	}
	JOINT LowerBack
	{
		OFFSET 0 0 0
		CHANNELS 3 Zrotation Yrotation Xrotation
		JOINT Spine
		{
			OFFSET 0.04294 2.14638 -0.31163
			CHANNELS 3 Zrotation Yrotation Xrotation
			JOINT Spine1
			{
				OFFSET -0.00400 2.17216 0.01486
				CHANNELS 3 Zrotation Yrotation Xrotation
				JOINT Neck
				{
					OFFSET 0 0 0
					CHANNELS 3 Zrotation Yrotation Xrotation
					JOINT Neck1
					{
						OFFSET 0.03869 1.76598 0.14916
						CHANNELS 3 Zrotation Yrotation Xrotation
						JOINT Head
						{
							OFFSET -0.00760 1.75513 -0.18948
							CHANNELS 3 Zrotation Yrotation Xrotation
							End Site
							{
								OFFSET -0.00601 1.82444 -0.08310
							}
						}
					}
				}
				JOINT LeftShoulder
				{
					OFFSET 0 0 0
					CHANNELS 3 Zrotation Yrotation Xrotation
					JOINT LeftArm
					{
						OFFSET 3.73696 0.92058 0.01733
						CHANNELS 3 Zrotation Yrotation Xrotation
						JOINT LeftForeArm
						{
							OFFSET 5.22771 -0.00000 0.00000
							CHANNELS 3 Zrotation Yrotation Xrotation
							JOINT LeftHand
							{
								OFFSET 3.45251 -0.00000 0.00000
								CHANNELS 3 Zrotation Yrotation Xrotation
								JOINT LeftFingerBase
								{
									OFFSET 0 0 0
									CHANNELS 3 Zrotation Yrotation Xrotation
									JOINT LeftHandIndex1
									{
										OFFSET 0.55212 -0.00000 0.00000
										CHANNELS 3 Zrotation Yrotation Xrotation
										End Site
										{
											OFFSET 0.44513 -0.00000 0.00000
										}
									}
								}
								JOINT LThumb
								{
									OFFSET 0 0 0
									CHANNELS 3 Zrotation Yrotation Xrotation
									End Site
									{
										OFFSET 0.45193 -0.00000 0.45193
									}
								}
							}
						}
					}
				}
				JOINT RightShoulder
				{
					OFFSET 0 0 0
					CHANNELS 3 Zrotation Yrotation Xrotation
					JOINT RightArm
					{
						OFFSET -3.63819 0.83094 -0.13694
						CHANNELS 3 Zrotation Yrotation Xrotation
						JOINT RightForeArm
						{
							OFFSET -5.23980 -0.00000 -0.00000
							CHANNELS 3 Zrotation Yrotation Xrotation
							JOINT RightHand
							{
								OFFSET -3.48042 -0.00000 -0.00000
								CHANNELS 3 Zrotation Yrotation Xrotation
								JOINT RightFingerBase
								{
									OFFSET 0 0 0
									CHANNELS 3 Zrotation Yrotation Xrotation
									JOINT RightHandIndex1
									{
										OFFSET -0.61871 -0.00000 0.00000
										CHANNELS 3 Zrotation Yrotation Xrotation
										End Site
										{
											OFFSET -0.49882 -0.00000 0.00000
										}
									}
								}
								JOINT RThumb
								{
									OFFSET 0 0 0
									CHANNELS 3 Zrotation Yrotation Xrotation
									End Site
									{
										OFFSET -0.50644 -0.00000 0.50644
									}
								}
							}
						}
					}
				}
			}
		}
	}
}
MOTION
Frames: 9
Frame Time: .0083333
2.9906 16.8027 -5.1821 317.7480 85.1188 316.3750 0.0000 0.0000 0.0000 -22.5328 5.7677 -17.1551 1.3924 7.4654 21.1016 0.3508 -2.1341 -10.6520 0.0073 -0.5513 -1.5149 0.0000 0.0000 0.0000 24.1185 -5.8391 -0.7959 -8.6554 -16.5808 54.8907 0.6650 -18.2431 5.4720 -0.7007 -5.3506 14.9114 3.8752 0.2354 -0.3936 -0.4871 0.2764 1.6648 -2.6675 0.2072 1.9525 2.4699 0.4926 -7.8791 1.1006 0.2854 8.7493 -0.0520 0.2950 4.3030 -0.0000 -0.0000 0.0000 -88.5106 4.7250 16.8223 11.0456 -18.3581 -1.7903 -0.0000 0.0000 -13.3810 16.7421 13.2114 3.9329 -7.1250 0.0000 -0.0000 -9.6783 43.5421 0.3517 -0.0000 -0.0000 0.0000 89.8344 -4.2960 24.5886 -14.4448 23.3670 -3.0023 0.0000 0.0000 3.5471 -18.3399 -7.6217 2.5175 7.1250 -0.0000 -0.0000 7.2587 -37.9128 1.2746
3.1062 16.8011 -5.1821 320.9430 85.3446 319.4430 0.0000 0.0000 0.0000 -22.9132 6.1210 -16.5860 1.3720 7.4127 20.9439 0.3532 -2.3431 -10.6596 0.0023 -0.3114 -0.8557 0.0000 0.0000 0.0000 23.6630 -5.2628 -1.7883 -9.1959 -16.9321 56.7651 0.7109 -19.4134 6.4086 -0.7295 -5.4572 15.2174 3.4130 0.1940 -0.2137 -0.5539 0.2354 1.6732 -2.4779 0.1785 1.8540 2.4916 0.5127 -7.8097 1.1257 0.3105 8.6945 -0.0461 0.3085 4.2694 -0.0000 0.0000 0.0000 -88.4495 4.6774 17.3326 11.2822 -18.7195 -1.8655 -0.0000 0.0000 -13.7275 16.8012 13.1151 3.9194 -7.1250 0.0000 -0.0000 -9.6033 43.4501 0.3710 -0.0000 0.0000 0.0000 89.8139 -4.2431 24.3362 -14.4282 23.3436 -2.9957 0.0000 0.0000 3.5638 -18.4588 -7.7634 2.5817 7.1250 -0.0000 -0.0000 7.1778 -38.0685 1.2326
3.2204 16.7980 -5.1819 324.3270 85.5407 322.7030 0.0000 0.0000 0.0000 -23.2700 6.4898 -16.0508 1.3566 7.3728 20.8246 0.3565 -2.5664 -10.6845 0.0002 -0.0928 -0.2548 0.0000 0.0000 0.0000 23.2407 -4.6507 -2.7559 -9.7161 -17.2471 58.5352 0.7306 -20.0961 7.0333 -0.6891 -5.3070 14.7864 2.9709 0.1557 -0.0678 -0.6171 0.1953 1.7044 -2.2956 0.1520 1.7991 2.5065 0.5345 -7.7592 1.1550 0.3378 8.6387 -0.0375 0.3230 4.2393 0.0000 -0.0000 0.0000 -88.3785 4.5729 17.8303 11.5142 -19.0721 -1.9406 -0.0000 0.0000 -14.0526 16.8434 13.0180 3.9013 -7.1250 0.0000 -0.0000 -9.5434 43.3552 0.3912 0.0000 -0.0000 0.0000 89.8017 -4.1418 24.0905 -14.4091 23.3165 -2.9881 0.0000 0.0000 3.5433 -18.5303 -7.9245 2.6458 7.1250 -0.0000 -0.0000 7.1400 -38.2415 1.1956
3.3332 16.7939 -5.1821 327.7370 85.6945 325.9950 0.0000 0.0000 0.0000 -23.5873 6.8471 -15.5467 1.3472 7.3481 20.7508 0.3613 -2.7869 -10.7361 0.0005 0.1425 0.3915 0.0000 0.0000 0.0000 22.8635 -4.0032 -3.7004 -10.2118 -17.5273 60.1940 0.7164 -20.1622 7.2825 -0.5995 -4.9567 13.7851 2.5815 0.1219 0.0483 -0.6808 0.1589 1.7511 -2.1431 0.1290 1.7779 2.5253 0.5575 -7.7290 1.1851 0.3652 8.5911 -0.0293 0.3378 4.2163 -0.0000 0.0000 0.0000 -88.2882 4.4229 18.3230 11.7443 -19.4201 -2.0165 -0.0000 0.0000 -14.3751 16.8775 12.9058 3.8766 -7.1250 0.0000 -0.0000 -9.4877 43.2442 0.4151 -0.0000 0.0000 0.0000 89.8072 -4.0046 23.8628 -14.3898 23.2892 -2.9805 0.0000 0.0000 3.4774 -18.5853 -8.0686 2.7021 7.1250 -0.0000 -0.0000 7.1138 -38.3957 1.1640
3.4449 16.7890 -5.1829 330.8660 85.8146 329.0150 0.0000 0.0000 0.0000 -23.8579 7.1840 -15.0767 1.3440 7.3399 20.7265 0.3676 -2.9906 -10.8148 0.0031 0.3620 0.9948 0.0000 0.0000 0.0000 22.5441 -3.3327 -4.6218 -10.6794 -17.7746 61.7361 0.6729 -19.5842 7.0939 -0.4892 -4.4846 12.4442 2.2582 0.0881 0.1353 -0.7428 0.1204 1.8091 -2.0259 0.1065 1.7852 2.5435 0.5808 -7.7153 1.2184 0.3921 8.5558 -0.0199 0.3529 4.2010 0.0000 0.0000 0.0000 -88.1786 4.2382 18.8110 11.9753 -19.7676 -2.0939 -0.0000 0.0000 -14.6851 16.9141 12.8246 3.8615 -7.1250 0.0000 -0.0000 -9.4368 43.1649 0.4315 0.0000 0.0000 0.0000 89.8292 -3.8441 23.6677 -14.3746 23.2677 -2.9745 0.0000 0.0000 3.3477 -18.6299 -8.1891 2.7492 7.1250 -0.0000 -0.0000 7.0932 -38.5247 1.1380
3.5557 16.7839 -5.1847 333.6970 85.9029 331.7500 0.0000 0.0000 0.0000 -24.0856 7.4885 -14.6365 1.3474 7.3487 20.7525 0.3759 -3.1733 -10.9260 0.0083 0.5873 1.6138 0.0000 0.0000 0.0000 22.2758 -2.6347 -5.5212 -11.1161 -17.9914 63.1581 0.6113 -18.4504 6.4713 -0.3748 -3.9318 10.8850 1.9920 0.0562 0.1823 -0.7970 0.0829 1.8831 -1.9327 0.0858 1.8321 2.5650 0.6044 -7.7129 1.2402 0.4197 8.5218 -0.0148 0.3678 4.1886 0.0000 -0.0000 0.0000 -88.0653 4.0108 19.2839 12.2056 -20.1122 -2.1725 -0.0000 0.0000 -14.9738 16.9625 12.7671 3.8562 -7.1250 0.0000 -0.0000 -9.3810 43.1111 0.4414 0.0000 -0.0000 0.0000 89.8517 -3.6569 23.5188 -14.3635 23.2520 -2.9701 0.0000 0.0000 3.1581 -18.6837 -8.2427 2.7756 7.1250 -0.0000 -0.0000 7.0550 -38.5845 1.1214
3.6657 16.7787 -5.1872 336.1310 85.9616 334.0990 0.0000 0.0000 0.0000 -24.2684 7.7492 -14.2213 1.3567 7.3730 20.8251 0.3867 -3.3210 -11.0758 0.0156 0.8056 2.2141 0.0000 0.0000 0.0000 22.0609 -1.9072 -6.4036 -11.5190 -18.1798 64.4559 0.5419 -16.9379 5.5173 -0.2688 -3.3350 9.2128 1.7901 0.0257 0.2163 -0.8472 0.0463 1.9550 -1.8715 0.0665 1.8848 2.5882 0.6276 -7.7166 1.2589 0.4465 8.5040 -0.0111 0.3824 4.1832 -0.0000 0.0000 0.0000 -87.9420 3.7749 19.7425 12.4407 -20.4623 -2.2540 -0.0000 0.0000 -15.2427 17.0255 12.7495 3.8661 -7.1250 0.0000 -0.0000 -9.3209 43.0997 0.4412 -0.0000 0.0000 0.0000 89.8824 -3.4735 23.4178 -14.3640 23.2527 -2.9703 0.0000 0.0000 2.9324 -18.6969 -8.3133 2.8013 7.1250 -0.0000 -0.0000 7.0539 -38.6592 1.1083
3.7747 16.7735 -5.1906 338.0650 85.9856 335.9600 0.0000 0.0000 0.0000 -24.4005 7.9592 -13.8262 1.3710 7.4103 20.9368 0.4004 -3.4274 -11.2683 0.0252 1.0242 2.8155 0.0000 0.0000 0.0000 21.9060 -1.1376 -7.2729 -11.8852 -18.3417 65.6246 0.4777 -15.2974 4.3420 -0.1807 -2.7381 7.5504 1.6529 -0.0018 0.2465 -0.8871 0.0129 2.0177 -1.8358 0.0494 1.9305 2.6099 0.6514 -7.7153 1.2712 0.4749 8.5012 -0.0092 0.3978 4.1822 0.0000 -0.0000 0.0000 -87.8189 3.5465 20.1834 12.6833 -20.8215 -2.3395 -0.0000 0.0000 -15.4939 17.1013 12.7855 3.8951 -7.1250 0.0000 -0.0000 -9.2612 43.1447 0.4279 0.0000 -0.0000 0.0000 89.9115 -3.3093 23.3675 -14.3800 23.2753 -2.9766 0.0000 0.0000 2.6919 -18.7017 -8.3626 2.8186 7.1250 -0.0000 -0.0000 7.0571 -38.7110 1.0997
3.8828 16.7681 -5.1945 339.4560 85.9884 337.2850 0.0000 0.0000 0.0000 -24.4872 8.1198 -13.4395 1.3894 7.4578 21.0789 0.4175 -3.4944 -11.5076 0.0355 1.2165 3.3446 0.0000 0.0000 0.0000 21.8049 -0.3374 -8.1252 -12.2117 -18.4787 66.6582 0.4243 -13.6978 3.0042 -0.1064 -2.1030 5.7904 1.5705 -0.0292 0.2841 -0.9157 -0.0210 2.0686 -1.8196 0.0324 1.9601 2.6283 0.6746 -7.7047 1.2782 0.5036 8.5126 -0.0083 0.4132 4.1845 0.0000 -0.0000 0.0000 -87.7002 3.3324 20.5994 12.9303 -21.1849 -2.4280 -0.0000 0.0000 -15.7281 17.1757 12.8391 3.9291 -7.1250 0.0000 -0.0000 -9.2065 43.2075 0.4110 0.0000 -0.0000 0.0000 89.9359 -3.1751 23.3699 -14.4144 23.3241 -2.9902 0.0000 0.0000 2.4655 -18.6887 -8.3966 2.8278 7.1250 -0.0000 -0.0000 7.0731 -38.7455 1.0962
